<svg width="52" height="52" viewBox="0 0 52 52" fill="none" xmlns="http://www.w3.org/2000/svg">
  <path d="M25.777 0C11.6072 0 0.0760193 11.4782 0.0760193 25.5828C0.0760193 37.9797 8.9796 48.3447 20.7606 50.6685C22.0635 50.9495 23.3991 51.1224 24.7672 51.1765V37.6447L17.9483 31.8083C17.2751 32.2839 16.4608 32.5757 15.5704 32.5757C13.3011 32.5757 11.4552 30.7383 11.4552 28.4794C11.4552 26.2205 13.3011 24.3831 15.5704 24.3831C17.8397 24.3831 19.6856 26.2205 19.6856 28.4794C19.6856 29.1387 19.5119 29.7439 19.2404 30.2952L24.7672 35.0183V22.1566L22.3024 20.0491C21.564 20.73 20.5868 21.1623 19.501 21.1623C17.2317 21.1623 15.3858 19.3249 15.3858 17.066C15.3858 14.8071 17.2317 12.9697 19.501 12.9697C21.7704 12.9697 23.6162 14.8071 23.6162 17.066C23.6162 17.52 23.5293 17.9415 23.3882 18.3522L25.7661 20.3949L28.1766 18.3738C28.0354 17.9631 27.9486 17.5308 27.9486 17.0768C27.9486 14.8179 29.7944 12.9806 32.0638 12.9806C34.3331 12.9806 36.1789 14.8179 36.1789 17.0768C36.1789 19.3357 34.3331 21.1731 32.0638 21.1731C30.978 21.1731 30.0007 20.7516 29.2732 20.0707L26.7759 22.2107V32.4136L32.6284 27.3986C32.3895 26.8798 32.2592 26.3178 32.2592 25.7125C32.2592 23.4536 34.1051 21.6162 36.3744 21.6162C38.6437 21.6162 40.4896 23.4536 40.4896 25.7125C40.4896 27.9714 38.6437 29.8088 36.3744 29.8088C35.4297 29.8088 34.572 29.4846 33.877 28.955L26.7759 35.0183V51.1765C28.144 51.1224 29.4795 50.9495 30.7825 50.6685C42.5635 48.3447 51.467 37.9797 51.467 25.5828C51.467 11.4782 39.9467 0 25.777 0ZM30.7825 48.6257V36.8557L34.5937 33.5916C35.1691 33.7213 35.7663 33.7862 36.3744 33.7862C40.8588 33.7862 44.4962 30.1547 44.4962 25.7017C44.4962 22.5674 42.6938 19.8329 40.0553 18.4927C40.1421 18.0279 40.1856 17.5524 40.1856 17.0552C40.1856 12.5915 36.5373 8.97074 32.0638 8.97074C29.5338 8.97074 27.2754 10.1272 25.777 11.9322C24.2894 10.1272 22.0201 8.97074 19.4902 8.97074C15.0058 8.97074 11.3684 12.6023 11.3684 17.0552C11.3684 18.4927 11.7484 19.8545 12.4107 21.0218C9.48993 22.2539 7.43776 25.1289 7.43776 28.4794C7.43776 32.9432 11.0861 36.5639 15.5596 36.5639C16.1025 36.5639 16.6345 36.5098 17.1665 36.4017L20.7497 39.4713V48.6257C10.098 46.3344 2.08475 36.8773 2.08475 25.5828C2.08475 12.5807 12.7148 1.9995 25.777 1.9995C38.8392 1.9995 49.4692 12.5807 49.4692 25.5828C49.4692 36.8773 41.4451 46.3344 30.7825 48.6257Z" fill="url(#treeGradient)"></path>
  <path d="M17.351 17.0877C17.351 18.255 18.2957 19.2061 19.4683 19.2061C20.641 19.2061 21.5965 18.2658 21.5965 17.0985C21.5965 15.9312 20.6519 14.9801 19.4792 14.9801C18.2957 14.9909 17.351 15.9312 17.351 17.0877Z" fill="url(#treeGradient)"></path>
  <path d="M32.0639 19.1953C33.2333 19.1953 34.1812 18.2517 34.1812 17.0877C34.1812 15.9237 33.2333 14.9801 32.0639 14.9801C30.8945 14.9801 29.9466 15.9237 29.9466 17.0877C29.9466 18.2517 30.8945 19.1953 32.0639 19.1953Z" fill="url(#treeGradient)"></path>
  <path d="M15.5377 30.6518C16.7071 30.6518 17.655 29.7082 17.655 28.5442C17.655 27.3802 16.7071 26.4366 15.5377 26.4366C14.3684 26.4366 13.4204 27.3802 13.4204 28.5442C13.4204 29.7082 14.3684 30.6518 15.5377 30.6518Z" fill="url(#treeGradient)"></path>
  <path d="M36.3853 27.8633C37.5546 27.8633 38.5026 26.9197 38.5026 25.7557C38.5026 24.5918 37.5546 23.6482 36.3853 23.6482C35.2159 23.6482 34.2679 24.5918 34.2679 25.7557C34.2679 26.9197 35.2159 27.8633 36.3853 27.8633Z" fill="url(#treeGradient)"></path>

  <defs>
    <linearGradient id="treeGradient" x1="25.7751" y1="51.176" x2="25.7751" y2="0" gradientUnits="userSpaceOnUse">
      <stop stop-color="#32C070"></stop>
      <stop offset="1" stop-color="#25A3C1"></stop>
    </linearGradient>
  </defs>
</svg>